<svg width="22" height="18" viewBox="0 0 22 18" fill="none" xmlns="http://www.w3.org/2000/svg">
<path fill-rule="evenodd" clip-rule="evenodd" d="M19 6C19.7956 6 20.5587 5.68393 21.1213 5.12132C21.6839 4.55871 22 3.79565 22 3C22 2.20435 21.6839 1.44129 21.1213 0.87868C20.5587 0.316071 19.7956 0 19 0C18.2044 0 17.4413 0.316071 16.8787 0.87868C16.3161 1.44129 16 2.20435 16 3C16 3.79565 16.3161 4.55871 16.8787 5.12132C17.4413 5.68393 18.2044 6 19 6ZM13.488 2C13.804 2 14.04 2.29 14.015 2.605C13.9602 3.28424 14.0454 3.96749 14.2652 4.6125C14.485 5.25751 14.8348 5.85057 15.293 6.355L11.618 9.243C11.4418 9.38152 11.2241 9.45682 11 9.45682C10.7759 9.45682 10.5582 9.38152 10.382 9.243L4.618 4.713C4.40941 4.5491 4.14425 4.47477 3.88085 4.50637C3.61746 4.53797 3.3774 4.67291 3.2135 4.8815C3.0496 5.09009 2.97527 5.35525 3.00687 5.61865C3.03847 5.88204 3.17341 6.1221 3.382 6.286L9.147 10.816C9.67548 11.2311 10.328 11.4567 11 11.4567C11.672 11.4567 12.3245 11.2311 12.853 10.816L16.978 7.574C17.6148 7.85573 18.3036 8.00084 19 8C19.742 8.00113 20.4748 7.83645 21.145 7.518C21.517 7.341 22 7.589 22 8.001V15C22 15.7956 21.6839 16.5587 21.1213 17.1213C20.5587 17.6839 19.7956 18 19 18H3C2.20435 18 1.44129 17.6839 0.87868 17.1213C0.31607 16.5587 0 15.7956 0 15V5C0 4.20435 0.31607 3.44129 0.87868 2.87868C1.44129 2.31607 2.20435 2 3 2H13.488Z" fill="white"/>
</svg>
